<?xml version="1.0" encoding="UTF-8" standalone="no"?>
<!-- Created with Inkscape (http://www.inkscape.org/) -->

<svg
   width="48"
   height="48"
   viewBox="0 0 48 48"
   version="1.1"
   id="svg1"
   xml:space="preserve"
   sodipodi:docname="decant_icon48.svg"
   inkscape:export-filename="..\decant_icon48.png"
   inkscape:export-xdpi="96"
   inkscape:export-ydpi="96"
   inkscape:version="1.4.3 (0d15f75, 2025-12-25)"
   xmlns:inkscape="http://www.inkscape.org/namespaces/inkscape"
   xmlns:sodipodi="http://sodipodi.sourceforge.net/DTD/sodipodi-0.dtd"
   xmlns="http://www.w3.org/2000/svg"
   xmlns:svg="http://www.w3.org/2000/svg"><sodipodi:namedview
     id="namedview1"
     pagecolor="#ffffff"
     bordercolor="#000000"
     borderopacity="0"
     inkscape:showpageshadow="2"
     inkscape:pageopacity="0.0"
     inkscape:pagecheckerboard="0"
     inkscape:deskcolor="#d1d1d1"
     inkscape:document-units="px"
     inkscape:zoom="1.6569865"
     inkscape:cx="397.40819"
     inkscape:cy="512.97944"
     inkscape:window-width="3840"
     inkscape:window-height="2120"
     inkscape:window-x="-12"
     inkscape:window-y="-12"
     inkscape:window-maximized="1"
     inkscape:current-layer="layer1"
     inkscape:export-bgcolor="#ffffff00"
     inkscape:clip-to-page="false"><inkscape:page
       x="0"
       y="0"
       width="48"
       height="48"
       id="page2"
       margin="0"
       bleed="0" /></sodipodi:namedview><defs
     id="defs1" /><g
     inkscape:label="Layer 1"
     inkscape:groupmode="layer"
     id="layer1"
     transform="translate(-128)"><path
       style="fill:#9a0a23;fill-opacity:1;stroke-width:0.18933"
       d="m 135.4624,47.912742 c -0.55804,-0.11265 -1.17373,-0.480303 -1.33423,-0.796722 -0.1101,-0.217083 -0.12795,-1.864812 -0.12795,-11.792379 0,-10.842361 0.009,-11.57515 0.15817,-12.120826 0.45977,-1.687443 1.29741,-2.994338 2.67994,-4.181294 0.90478,-0.776778 2.03193,-1.432096 4.07312,-2.368056 0.93808,-0.430149 2.02515,-0.969498 2.41571,-1.19855 2.52593,-1.481425 3.57137,-3.089012 3.88083,-5.9675212 0.29205,-2.7165003 -0.68046,-5.8338555 -2.25239,-7.2199794 -0.18788,-0.1657134 -0.73118,-0.5184867 -1.20723,-0.7839434 -0.47605,-0.2654535 -0.92463,-0.56350348 -0.99687,-0.66232708 -0.24459,-0.33467964 0.0951,-0.69186924 0.74438,-0.78229263 0.17009,-0.02368956 4.06551,-0.04106846 8.65658,-0.0386215023 7.64779,0.004062012 8.37136,0.0115685523 8.63302,0.0895849923 0.50218,0.1497156 0.70056,0.53474451 0.42807,0.8308644 -0.069,0.0750072 -0.39214,0.28409972 -0.71806,0.46465062 -1.00804,0.5584374 -1.53369,0.9949594 -2.06773,1.7171151 -0.54052,0.7309296 -1.08454,2.1727743 -1.29094,3.4214139 l -0.0604,0.3659571 -0.36402,0.055176 c -0.54554,0.082683 -1.78185,0.4245603 -2.29552,0.6347802 -2.23681,0.9154254 -3.44295,2.10477 -4.08944,4.0325049 -0.13575,0.404714 -0.15503,0.927799 -0.17528,4.772574 -0.0135,2.374926 -0.0248,4.619175 -0.027,4.987215 l -0.005,0.669171 h -4.41661 c -2.42915,0 -4.41629,0.01704 -4.41587,0.03787 3.9e-4,0.02082 0.20545,0.17424 0.45576,0.340899 0.47555,0.316742 1.99591,1.35059 4.75511,3.233532 4.47698,3.055184 5.39081,3.645957 5.55176,3.589086 0.21466,-0.07587 3.81179,-2.484478 7.96412,-5.332767 0.99209,-0.680532 1.82558,-1.248694 1.85217,-1.262587 0.1782,-0.093 0.81227,-0.563523 0.78244,-0.580566 -0.0203,-0.01155 -2.01272,-0.02427 -4.4278,-0.02826 l -4.3911,-0.0073 1.8e-4,-4.88115 c 1.8e-4,-5.359928 -0.005,-5.30747 0.53985,-6.244739 0.14504,-0.249996 0.42812,-0.613619 0.62881,-0.808059 0.42922,-0.4157763 1.21738,-0.9066741 1.66604,-1.0376592 l 0.31748,-0.092697 0.0572,0.9008898 c 0.072,1.1381134 0.24948,1.8665384 0.64416,2.6451844 0.83035,1.638296 2.26583,2.735975 5.37703,4.111655 1.41273,0.624665 2.68277,1.295795 3.32153,1.755194 1.32598,0.95367 2.46877,2.28988 3.03992,3.554427 0.55518,1.229128 0.51276,0.40632 0.54642,10.597462 l 0.031,9.303549 -4.66179,0.0144 -4.66176,0.0144 -0.46173,0.11937 c -0.54001,0.13959 -1.10929,0.47235 -1.37908,0.806091 -0.18628,0.23037 -0.19146,0.297 -0.21688,2.72343 L 158.59289,48 147.22397,47.9961 c -10.09309,-0.0033 -11.41295,-0.0129 -11.76166,-0.08328 z m 19.33663,-4.684305 c 0.81976,-0.24237 0.91079,-0.87549 0.16335,-1.13604 -0.28755,-0.10023 -0.42435,-0.10194 -8.23397,-0.10212 l -7.94156,-1.38e-4 -0.29259,0.12759 c -0.32207,0.14046 -0.53163,0.443448 -0.44428,0.642429 0.0792,0.18045 0.40208,0.393966 0.7127,0.471279 0.4269,0.10629 15.67644,0.10347 16.03638,-0.003 z m 10.49681,-2.869533 c 0.78885,-0.24624 0.83926,-0.836244 0.0972,-1.136655 -0.1962,-0.07938 -1.15983,-0.08658 -13.27647,-0.09888 -13.02923,-0.0132 -13.06603,-0.0129 -13.44039,0.0906 -0.61572,0.17043 -0.83108,0.566703 -0.48455,0.891642 0.22779,0.2136 0.47219,0.28476 1.10856,0.322896 0.29151,0.0174 6.1943,0.0294 13.11737,0.0264 11.94075,-0.0051 12.6023,-0.0099 12.87835,-0.09609 z m 0.0801,-2.861571 c 0.74698,-0.26043 0.71307,-0.888543 -0.0605,-1.121463 -0.29452,-0.08868 -0.86961,-0.09267 -13.33958,-0.09267 -12.45245,0 -13.04517,0.0042 -13.33273,0.09228 -0.32628,0.10005 -0.62378,0.365142 -0.62378,0.555843 0,0.19251 0.27365,0.467421 0.56709,0.56973 0.26296,0.09168 0.71107,0.09486 13.38942,0.09486 12.85447,0 13.12304,-0.002 13.40015,-0.09858 z m -0.0981,-2.832474 c 0.40634,-0.11247 0.65444,-0.336642 0.65444,-0.591345 0,-0.1803 -0.32181,-0.467343 -0.62097,-0.55389 -0.17169,-0.04965 -3.01645,-0.06327 -13.31783,-0.06387 -14.46882,-6.36e-4 -13.43651,-0.0246 -13.80115,0.317355 -0.0949,0.08892 -0.17255,0.2322 -0.17278,0.318351 -3.6e-4,0.20715 0.32624,0.478494 0.70808,0.588183 0.28848,0.08286 1.10397,0.08832 13.2423,0.08838 12.84773,1.44e-4 12.93741,-6.36e-4 13.30788,-0.10317 z m 0.10079,-2.848992 c 0.64609,-0.22344 0.72648,-0.729519 0.16267,-1.024881 l -0.3133,-0.16416 -2.40837,-6.39e-4 c -22.6341,-0.0036 -23.92621,6.39e-4 -24.18716,0.07758 -0.33061,0.09774 -0.5295,0.27264 -0.58484,0.514293 -0.0548,0.23844 0.23016,0.503802 0.67982,0.633501 0.2896,0.08352 1.06156,0.0879 13.33641,0.07575 12.75434,-0.0126 13.03505,-0.015 13.31468,-0.11169 z m -4.21288,13.684212 -0.009,-2.196894 h 3.89536 3.89531 l -3.82205,2.196894 c -2.10211,1.208298 -3.85125,2.196903 -3.88696,2.196903 -0.0359,0 -0.0686,-0.988605 -0.0734,-2.196903 z m -9.81574,-18.395871 c -0.57194,-0.399 -2.252,-1.546108 -4.43142,-3.025645 -0.668,-0.453498 -1.21456,-0.836064 -1.21456,-0.850145 0,-0.0141 0.75331,-0.02562 1.67405,-0.02562 h 1.67404 l 1.43084,0.984818 c 0.78695,0.54165 1.46218,0.984817 1.50044,0.984817 0.0634,0 0.92318,-0.577087 2.35624,-1.581789 l 0.5532,-0.387846 h 1.68457 c 0.96731,0 1.67202,0.01944 1.6551,0.04567 -0.0157,0.02511 -0.86292,0.610337 -1.8816,1.300464 -1.01869,0.690134 -2.40733,1.635453 -3.08591,2.100717 -0.67855,0.465263 -1.26078,0.845934 -1.29384,0.845934 -0.0331,0 -0.31257,-0.176133 -0.62115,-0.391402 z"
       id="path1" /></g></svg>
