<?xml version="1.0" encoding="UTF-8" standalone="no"?>
<!-- Created with Inkscape (http://www.inkscape.org/) -->

<svg
   width="16"
   height="16"
   viewBox="0 0 16 16"
   version="1.1"
   id="svg1"
   xml:space="preserve"
   sodipodi:docname="decant_icon16.svg"
   inkscape:export-filename="decant_icon16.png"
   inkscape:export-xdpi="96"
   inkscape:export-ydpi="96"
   inkscape:version="1.4.3 (0d15f75, 2025-12-25)"
   xmlns:inkscape="http://www.inkscape.org/namespaces/inkscape"
   xmlns:sodipodi="http://sodipodi.sourceforge.net/DTD/sodipodi-0.dtd"
   xmlns="http://www.w3.org/2000/svg"
   xmlns:svg="http://www.w3.org/2000/svg"><sodipodi:namedview
     id="namedview1"
     pagecolor="#ffffff"
     bordercolor="#000000"
     borderopacity="0"
     inkscape:showpageshadow="2"
     inkscape:pageopacity="0.0"
     inkscape:pagecheckerboard="0"
     inkscape:deskcolor="#d1d1d1"
     inkscape:document-units="px"
     inkscape:zoom="1"
     inkscape:cx="8"
     inkscape:cy="9"
     inkscape:window-width="3840"
     inkscape:window-height="2120"
     inkscape:window-x="-12"
     inkscape:window-y="-12"
     inkscape:window-maximized="1"
     inkscape:current-layer="layer1"
     inkscape:export-bgcolor="#ffffff00"
     inkscape:clip-to-page="false"><inkscape:page
       x="0"
       y="0"
       width="16"
       height="16"
       id="page2"
       margin="0"
       bleed="0" /></sodipodi:namedview><defs
     id="defs1" /><g
     inkscape:label="Layer 1"
     inkscape:groupmode="layer"
     id="layer1"
     transform="translate(-128)"><path
       style="fill:#9a0a23;fill-opacity:0.50410956;stroke-width:0.072873"
       d="m 128.64988,15.970914 c -0.24802,-0.03755 -0.52166,-0.160101 -0.59299,-0.265574 C 128.00795,15.632979 128,15.083736 128,11.774547 c 0,-3.6141206 0.004,-3.8583834 0.0703,-4.0402756 0.20434,-0.5624809 0.57662,-0.9981126 1.19109,-1.3937645 0.40212,-0.2589259 0.90308,-0.4773653 1.81028,-0.7893518 0.41693,-0.1433832 0.90007,-0.3231662 1.07365,-0.3995167 1.12264,-0.4938083 1.58729,-1.0296706 1.72483,-1.9891738 0.1298,-0.9055001 -0.30243,-1.9446185 -1.00107,-2.40665979 -0.0835,-0.0552378 -0.32497,-0.17282893 -0.53655,-0.26131446 -0.21158,-0.0884845 -0.41095,-0.18783451 -0.44305,-0.22077571 -0.10871,-0.11155988 0.0423,-0.23062308 0.33083,-0.26076421 0.0756,-0.00789652 1.8069,-0.0136894831 3.84739,-0.01287383361 3.39903,0.0013540036 3.72062,0.0038561836 3.83691,0.02986166361 0.22319,0.0499052 0.31136,0.17824817 0.19026,0.2769548 -0.0307,0.0250024 -0.17429,0.0946999 -0.31914,0.15488355 -0.44802,0.18614579 -0.68164,0.33165315 -0.919,0.57237169 -0.24023,0.2436432 -0.48202,0.7242581 -0.57375,1.1404713 l -0.0269,0.1219857 -0.16179,0.018392 c -0.24246,0.027561 -0.79193,0.1415201 -1.02023,0.2115934 -0.99415,0.3051418 -1.53021,0.70159 -1.81754,1.3441682 -0.0603,0.1349049 -0.0689,0.3092666 -0.0779,1.5908583 -0.006,0.7916416 -0.011,1.5397246 -0.012,1.6624046 l -0.002,0.223057 h -1.96295 c -1.07963,0 -1.9628,0.00568 -1.96261,0.012626 1.7e-4,0.00694 0.0913,0.05808 0.20255,0.1136333 0.21136,0.1055806 0.88707,0.4501964 2.11339,1.0778437 1.98978,1.0183947 2.39593,1.2153193 2.46746,1.1963622 0.0954,-0.025291 1.69414,-0.8281597 3.53963,-1.777589 0.44093,-0.2268438 0.81137,-0.4162317 0.82319,-0.4208623 0.0792,-0.031001 0.361,-0.187841 0.34775,-0.1935222 -0.009,-0.00385 -0.89454,-0.00809 -1.96792,-0.00942 l -1.95161,-0.00244 8e-5,-1.6270501 c 8e-5,-1.7866424 -0.002,-1.7691564 0.23994,-2.0815794 0.0645,-0.083332 0.19027,-0.2045396 0.27947,-0.269353 0.19077,-0.1385921 0.54106,-0.3022247 0.74046,-0.3458864 l 0.14111,-0.030899 0.0254,0.3002966 c 0.032,0.3793713 0.11088,0.6221794 0.28629,0.8817283 0.36905,0.5460986 1.00705,0.9119917 2.38981,1.3705515 0.62788,0.2082213 1.19235,0.4319315 1.47624,0.5850646 0.58933,0.3178901 1.09724,0.7632932 1.35109,1.1848087 0.24674,0.4097097 0.22789,0.1354402 0.24285,3.5324877 l 0.0138,3.101183 -2.07192,0.0048 -2.07191,0.0048 -0.20521,0.03979 c -0.24,0.04653 -0.49302,0.15745 -0.61292,0.268697 -0.0828,0.07679 -0.0851,0.099 -0.0964,0.90781 L 138.93014,16 133.87727,15.9987 c -4.48584,-0.0011 -5.07245,-0.0043 -5.22743,-0.02776 z m 8.5941,-1.561435 c 0.36434,-0.08079 0.4048,-0.29183 0.0726,-0.37868 -0.1278,-0.03341 -0.1886,-0.03398 -3.65956,-0.03404 l -3.52961,-4.6e-5 -0.13003,0.04253 c -0.14315,0.04682 -0.23628,0.147816 -0.19746,0.214143 0.0352,0.06015 0.1787,0.131322 0.31675,0.157093 0.18974,0.03543 6.96735,0.03449 7.12732,-0.001 z m 4.66527,-0.956511 c 0.35059,-0.08208 0.373,-0.278748 0.0432,-0.378885 -0.0872,-0.02646 -0.51548,-0.02886 -5.90068,-0.03296 -5.7908,-0.0044 -5.80716,-0.0043 -5.97354,0.0302 -0.27365,0.05681 -0.36937,0.188901 -0.21535,0.297214 0.10124,0.0712 0.20985,0.09492 0.49269,0.107632 0.12956,0.0058 2.75304,0.0098 5.82997,0.0088 5.30703,-0.0017 5.60105,-0.0033 5.72374,-0.03203 z m 0.0356,-0.953857 c 0.332,-0.08681 0.31692,-0.296181 -0.0269,-0.373821 -0.1309,-0.02956 -0.3865,-0.03089 -5.92873,-0.03089 -5.53445,0 -5.79788,0.0014 -5.92569,0.03076 -0.14501,0.03335 -0.27723,0.121714 -0.27723,0.185281 0,0.06417 0.12162,0.155807 0.25204,0.18991 0.11687,0.03056 0.31603,0.03162 5.95088,0.03162 5.71312,0 5.83249,-6.25e-4 5.95565,-0.03286 z m -0.0436,-0.944158 c 0.18059,-0.03749 0.29086,-0.112214 0.29086,-0.197115 0,-0.0601 -0.14303,-0.155781 -0.27599,-0.18463 -0.0763,-0.01655 -1.34065,-0.02109 -5.91907,-0.02129 -6.4306,-2.12e-4 -5.9718,-0.0082 -6.13386,0.105785 -0.0422,0.02964 -0.0767,0.0774 -0.0768,0.106117 -1.6e-4,0.06905 0.145,0.159498 0.31471,0.196061 0.12821,0.02762 0.49066,0.02944 5.88549,0.02946 5.71013,4.8e-5 5.74999,-2.12e-4 5.91465,-0.03439 z m 0.0448,-0.949664 c 0.28716,-0.07448 0.32288,-0.243173 0.0723,-0.341627 l -0.13925,-0.05472 -1.07039,-2.13e-4 c -10.05965,-0.0012 -10.63392,2.13e-4 -10.7499,0.02586 -0.14694,0.03258 -0.23533,0.09088 -0.25993,0.171431 -0.0243,0.07948 0.10229,0.167934 0.30214,0.211167 0.12872,0.02784 0.47181,0.0293 5.92733,0.02525 5.66861,-0.0042 5.79338,-0.005 5.91766,-0.03723 z m -1.8724,4.561404 -0.004,-0.732298 h 1.73127 1.73127 l -1.6987,0.732298 c -0.93428,0.402766 -1.71168,0.732301 -1.72755,0.732301 -0.0159,0 -0.0305,-0.329535 -0.0326,-0.732301 z m -4.36257,-6.1319572 c -0.2542,-0.1329998 -1.0009,-0.5153694 -1.96953,-1.0085483 -0.29689,-0.151166 -0.53981,-0.278688 -0.53981,-0.2833814 0,-0.00469 0.33481,-0.00854 0.74403,-0.00854 h 0.74402 l 0.63593,0.3282725 c 0.34976,0.18055 0.64986,0.3282725 0.66687,0.3282725 0.0282,0 0.4103,-0.1923624 1.04722,-0.5272629 l 0.24587,-0.1292821 h 0.7487 c 0.42991,0 0.74312,0.00648 0.7356,0.015227 -0.007,0.00837 -0.38352,0.2034455 -0.83627,0.433488 -0.45275,0.2300446 -1.06993,0.5451508 -1.37152,0.7002391 -0.30158,0.1550872 -0.56035,0.2819777 -0.57504,0.2819777 -0.0147,0 -0.13892,-0.058711 -0.27607,-0.1304672 z"
       id="path1" /><text
       xml:space="preserve"
       style="font-size:22.6389px;writing-mode:lr-tb;direction:ltr;mix-blend-mode:difference;fill:#9a0a23;fill-opacity:1;stroke-width:1.88657"
       x="122.20161"
       y="16.459644"
       id="text1"
       transform="scale(1.0287278,0.97207449)"><tspan
         sodipodi:role="line"
         id="tspan1"
         x="122.20161"
         y="16.459644"
         style="font-weight:bold;fill:#9a0a23;fill-opacity:1;stroke-width:1.88657">D</tspan></text></g></svg>
