<?xml version="1.0" encoding="UTF-8" standalone="no"?>
<!-- Created with Inkscape (http://www.inkscape.org/) -->

<svg
   width="32"
   height="32"
   viewBox="0 0 32 32"
   version="1.1"
   id="svg1"
   xml:space="preserve"
   sodipodi:docname="decant_icon.svg"
   inkscape:export-filename="decant_icon32.png"
   inkscape:export-xdpi="96"
   inkscape:export-ydpi="96"
   inkscape:version="1.4.3 (0d15f75, 2025-12-25)"
   xmlns:inkscape="http://www.inkscape.org/namespaces/inkscape"
   xmlns:sodipodi="http://sodipodi.sourceforge.net/DTD/sodipodi-0.dtd"
   xmlns="http://www.w3.org/2000/svg"
   xmlns:svg="http://www.w3.org/2000/svg"><sodipodi:namedview
     id="namedview1"
     pagecolor="#ffffff"
     bordercolor="#000000"
     borderopacity="0"
     inkscape:showpageshadow="2"
     inkscape:pageopacity="0.0"
     inkscape:pagecheckerboard="0"
     inkscape:deskcolor="#d1d1d1"
     inkscape:document-units="px"
     inkscape:zoom="1"
     inkscape:cx="269.5"
     inkscape:cy="368.5"
     inkscape:window-width="3473"
     inkscape:window-height="1725"
     inkscape:window-x="167"
     inkscape:window-y="108"
     inkscape:window-maximized="0"
     inkscape:current-layer="layer1"
     inkscape:export-bgcolor="#ffffff00"
     inkscape:clip-to-page="false" /><defs
     id="defs1" /><g
     inkscape:label="Layer 1"
     inkscape:groupmode="layer"
     id="layer1"
     transform="translate(-128)"><path
       style="fill:#9a0a23;fill-opacity:1;stroke-width:0.12622"
       d="m 132.97479,31.941828 c -0.37203,-0.0751 -0.78249,-0.320202 -0.88949,-0.531148 -0.0734,-0.144722 -0.0853,-1.243208 -0.0853,-7.861586 0,-7.228241 0.006,-7.716767 0.10545,-8.080551 0.30651,-1.124962 0.86493,-1.996225 1.78663,-2.787529 0.60318,-0.517852 1.35462,-0.954731 2.71541,-1.578704 0.62539,-0.286766 1.35011,-0.646332 1.61048,-0.799033 1.68395,-0.9876168 2.38092,-2.0593414 2.58723,-3.9783478 0.1947,-1.8110002 -0.45364,-3.889237 -1.5016,-4.8133196 -0.12525,-0.1104756 -0.48745,-0.3456578 -0.80482,-0.5226289 -0.31737,-0.176969 -0.61642,-0.37566902 -0.66458,-0.44155142 -0.16306,-0.22311976 0.0634,-0.46124616 0.49625,-0.52152842 0.1134,-0.01579304 2.71034,-0.02737897 5.77107,-0.0257476681 5.09853,0.002708008 5.58091,0.007712368 5.75535,0.0597233281 0.33479,0.0998104 0.46704,0.35649634 0.28539,0.5539096 -0.046,0.0500048 -0.26143,0.1893998 -0.47871,0.3097671 -0.67203,0.37229158 -1.02246,0.66330628 -1.37849,1.14474338 -0.36035,0.4872864 -0.72303,1.4485162 -0.86063,2.2809426 l -0.0403,0.2439714 -0.24268,0.036784 c -0.36369,0.055122 -1.1879,0.2830402 -1.53035,0.4231868 -1.49121,0.6102836 -2.2953,1.40318 -2.7263,2.6883364 -0.0905,0.2698098 -0.10335,0.6185332 -0.11685,3.1817162 -0.009,1.583284 -0.0165,3.07945 -0.018,3.32481 l -0.003,0.446114 h -2.94442 c -1.61944,0 -2.94419,0.01136 -2.94391,0.02525 2.6e-4,0.01388 0.13696,0.11616 0.30384,0.227266 0.31703,0.211161 1.3306,0.900393 3.17008,2.155688 2.98466,2.036789 3.59388,2.430638 3.70118,2.392724 0.1431,-0.05058 2.5412,-1.656319 5.30942,-3.555178 0.6614,-0.453688 1.21705,-0.832463 1.23478,-0.841725 0.1188,-0.062 0.54151,-0.375682 0.52163,-0.387044 -0.0135,-0.0077 -1.34181,-0.01618 -2.95187,-0.01884 l -2.92741,-0.0049 1.2e-4,-3.2541 c 1.2e-4,-3.573285 -0.003,-3.538313 0.3599,-4.163159 0.0967,-0.166664 0.28541,-0.4090792 0.41921,-0.538706 0.28615,-0.2771842 0.81159,-0.6044494 1.11069,-0.6917728 l 0.21166,-0.061798 0.0381,0.6005932 c 0.048,0.7587426 0.16632,1.2443588 0.42944,1.7634566 0.55357,1.0921972 1.51056,1.823983 3.5847,2.741103 0.94182,0.416443 1.78852,0.863863 2.21436,1.170129 0.88399,0.63578 1.64585,1.526587 2.02662,2.369618 0.37011,0.819419 0.34184,0.27088 0.36428,7.064975 l 0.0207,6.202366 -3.10787,0.0096 -3.10785,0.0096 -0.30782,0.07958 c -0.36001,0.09306 -0.73953,0.3149 -0.91938,0.537394 -0.12419,0.15358 -0.12764,0.198 -0.14459,1.81562 L 148.39515,32 l -7.5793,-0.0026 c -6.72874,-0.0022 -7.60865,-0.0086 -7.84112,-0.05552 z m 12.89111,-3.12287 c 0.54651,-0.16158 0.6072,-0.58366 0.1089,-0.75736 -0.1917,-0.06682 -0.2829,-0.06796 -5.48932,-0.06808 l -5.29439,-9.2e-5 -0.19506,0.08506 c -0.21472,0.09364 -0.35442,0.295632 -0.29619,0.428286 0.0528,0.1203 0.26805,0.262644 0.47514,0.314186 0.2846,0.07086 10.45098,0.06898 10.69094,-0.002 z m 6.99789,-1.913022 c 0.5259,-0.16416 0.55951,-0.557496 0.0648,-0.75777 -0.1308,-0.05292 -0.77322,-0.05772 -8.851,-0.06592 -8.68617,-0.0088 -8.71071,-0.0086 -8.96028,0.0604 -0.41048,0.11362 -0.55406,0.377802 -0.32303,0.594428 0.15186,0.1424 0.31479,0.18984 0.73904,0.215264 0.19434,0.0116 4.12954,0.0196 8.74493,0.0176 7.96052,-0.0034 8.40155,-0.0066 8.58559,-0.06406 z m 0.0534,-1.907714 c 0.49799,-0.17362 0.47538,-0.592362 -0.0403,-0.747642 -0.19635,-0.05912 -0.57975,-0.06178 -8.89307,-0.06178 -8.30165,0 -8.6968,0.0028 -8.88851,0.06152 -0.21752,0.0667 -0.41585,0.243428 -0.41585,0.370562 0,0.12834 0.18243,0.311614 0.37806,0.37982 0.17531,0.06112 0.47405,0.06324 8.9263,0.06324 8.56966,0 8.74871,-0.0013 8.93345,-0.06572 z m -0.0654,-1.888316 c 0.2709,-0.07498 0.4363,-0.224428 0.4363,-0.39423 0,-0.1202 -0.21454,-0.311562 -0.41398,-0.36926 -0.11446,-0.0331 -2.01097,-0.04218 -8.87858,-0.04258 -9.64589,-4.24e-4 -8.95769,-0.0164 -9.20078,0.21157 -0.0633,0.05928 -0.11504,0.1548 -0.11519,0.212234 -2.4e-4,0.1381 0.2175,0.318996 0.47206,0.392122 0.19232,0.05524 0.73598,0.05888 8.82821,0.05892 8.56517,9.6e-5 8.62496,-4.24e-4 8.87195,-0.06878 z m 0.0672,-1.899328 c 0.43073,-0.14896 0.48432,-0.486346 0.10845,-0.683254 l -0.20887,-0.10944 -1.60558,-4.26e-4 c -15.08944,-0.0024 -15.95084,4.26e-4 -16.12481,0.05172 -0.22041,0.06516 -0.353,0.18176 -0.3899,0.342862 -0.0365,0.15896 0.15344,0.335868 0.45321,0.422334 0.19308,0.05568 0.70772,0.0586 8.89097,0.0505 8.5029,-0.0084 8.69005,-0.01 8.87647,-0.07446 z m -2.80859,9.122808 -0.006,-1.464596 h 2.5969 2.59689 l -2.54804,1.464596 c -1.40141,0.805532 -2.56751,1.464602 -2.59132,1.464602 -0.0239,0 -0.0457,-0.65907 -0.0489,-1.464602 z m -6.54384,-12.263914 c -0.3813,-0.266 -1.50134,-1.030739 -2.95429,-2.017097 -0.44533,-0.302332 -0.80971,-0.557376 -0.80971,-0.566763 0,-0.0094 0.50221,-0.01708 1.11604,-0.01708 h 1.11603 l 0.95389,0.656545 c 0.52464,0.3611 0.97479,0.656545 1.0003,0.656545 0.0423,0 0.61545,-0.384725 1.57083,-1.054526 l 0.3688,-0.258564 h 1.12305 c 0.64487,0 1.11468,0.01296 1.1034,0.03045 -0.0105,0.01674 -0.57528,0.406891 -1.2544,0.866976 -0.67913,0.460089 -1.60489,1.090302 -2.05728,1.400478 -0.45237,0.310175 -0.84052,0.563956 -0.86256,0.563956 -0.0221,0 -0.20838,-0.117422 -0.4141,-0.260935 z"
       id="path1" /></g></svg>
