<?xml version="1.0" encoding="UTF-8" standalone="no"?>
<!-- Created with Inkscape (http://www.inkscape.org/) -->

<svg
   width="1024"
   height="1024"
   viewBox="0 0 1024 1024"
   version="1.1"
   id="svg1"
   xml:space="preserve"
   sodipodi:docname="decant_icon_full.svg"
   inkscape:export-filename="decant_icon_full.png"
   inkscape:export-xdpi="96"
   inkscape:export-ydpi="96"
   inkscape:version="1.4.3 (0d15f75, 2025-12-25)"
   xmlns:inkscape="http://www.inkscape.org/namespaces/inkscape"
   xmlns:sodipodi="http://sodipodi.sourceforge.net/DTD/sodipodi-0.dtd"
   xmlns="http://www.w3.org/2000/svg"
   xmlns:svg="http://www.w3.org/2000/svg"><sodipodi:namedview
     id="namedview1"
     pagecolor="#ffffff"
     bordercolor="#000000"
     borderopacity="0"
     inkscape:showpageshadow="2"
     inkscape:pageopacity="0.0"
     inkscape:pagecheckerboard="0"
     inkscape:deskcolor="#d1d1d1"
     inkscape:document-units="px"
     inkscape:zoom="1"
     inkscape:cx="269.5"
     inkscape:cy="368.5"
     inkscape:window-width="3473"
     inkscape:window-height="1725"
     inkscape:window-x="167"
     inkscape:window-y="108"
     inkscape:window-maximized="0"
     inkscape:current-layer="layer1"
     inkscape:export-bgcolor="#ffffff00"
     inkscape:clip-to-page="false" /><defs
     id="defs1" /><g
     inkscape:label="Layer 1"
     inkscape:groupmode="layer"
     id="layer1"
     transform="translate(-128)"><path
       style="fill:#9a0a23;fill-opacity:1;stroke-width:4.03903"
       d="m 287.19322,1022.1385 c -11.90494,-2.4032 -25.03963,-10.2465 -28.46363,-16.9967 C 256.3808,1000.5107 256,965.3591 256,753.57101 c 0,-231.30371 0.192,-246.93655 3.37439,-258.57763 9.8083,-35.99879 27.67771,-63.8792 57.17204,-89.20093 19.30172,-16.57127 43.34775,-30.55139 86.89294,-50.51853 20.01244,-9.17651 43.20343,-20.68262 51.53526,-25.56906 53.88628,-31.60373 76.18928,-65.89892 82.79118,-127.30713 6.23039,-57.952 -14.51645,-124.45558 -48.0511,-154.026223 -4.00799,-3.535219 -15.59836,-11.061049 -25.75418,-16.724125 -10.15582,-5.663008 -19.7254,-12.021408 -21.26652,-14.129645 -5.21791,-7.139832 2.0288,-14.7598772 15.87997,-16.68890949 3.62879,-0.50537728 86.7307,-0.87612704 184.67385,-0.82392538 163.15262,0.08665626 178.58875,0.24679578 184.17082,1.91114647 10.71326,3.1939328 14.94525,11.4078834 9.13246,17.7251074 -1.472,1.600153 -8.36574,6.060793 -15.31869,9.912547 -21.50491,11.913331 -32.71865,21.225801 -44.11159,36.631788 -11.53117,15.593165 -23.13691,46.352519 -27.5401,72.990159 l -1.2896,7.80709 -7.76574,1.17709 c -11.63806,1.7639 -38.01272,9.05728 -48.9711,13.54197 -47.71862,19.52908 -73.44944,44.90176 -87.24142,86.02677 -2.89599,8.63391 -3.30719,19.79306 -3.73919,101.81492 -0.288,50.66509 -0.528,98.5424 -0.576,106.39392 l -0.096,14.27565 h -94.22124 c -51.82197,0 -94.21388,0.36352 -94.20492,0.808 0.008,0.44416 4.38271,3.71712 9.72286,7.27251 10.14493,6.75715 42.57911,28.81257 101.44234,68.98201 95.50893,65.17725 115.00392,77.78042 118.43752,76.56717 4.57919,-1.61856 81.31823,-53.00221 169.90108,-113.76569 21.16476,-14.51802 38.94552,-26.63882 39.51288,-26.9352 3.80159,-1.984 17.32829,-12.02183 16.69213,-12.38541 -0.432,-0.2464 -42.93783,-0.51776 -94.45965,-0.60288 l -93.67692,-0.1568 0.004,-104.1312 c 0.004,-114.34512 -0.096,-113.22602 11.51677,-133.22109 3.0944,-5.33325 9.13311,-13.09053 13.4147,-17.23859 9.15678,-8.8699 25.97082,-19.34238 35.542,-22.13673 l 6.77311,-1.97754 1.2192,19.21898 c 1.53599,24.27977 5.32222,39.81949 13.74205,56.43062 17.7142,34.95031 48.33782,58.36745 114.71016,87.71529 30.13818,13.32618 57.23252,27.64362 70.85937,37.44413 28.28762,20.34496 52.66709,48.85078 64.85168,75.82778 11.8435,26.2214 10.9389,8.66816 11.657,226.0792 l 0.6622,198.47571 -99.45163,0.3072 -99.451,0.3072 -9.85022,2.54656 c -11.52029,2.97792 -23.66491,10.0768 -29.42009,17.19661 -3.97408,4.91456 -4.08448,6.336 -4.62687,58.09984 l -0.5568,53.05926 -242.5371,-0.083 c -215.31923,-0.07 -243.47629,-0.2752 -250.91531,-1.7766 z m 412.51466,-99.93184 c 17.48828,-5.17056 19.43036,-18.67712 3.48479,-24.23552 -6.13439,-2.13824 -9.05278,-2.17472 -175.65788,-2.17856 l -169.42012,-0.003 -6.24191,2.72192 c -6.87103,2.99648 -11.34142,9.46023 -9.47806,13.70515 1.6896,3.8496 8.57758,8.40461 15.20445,10.05396 9.10718,2.26752 334.43066,2.20736 342.10937,-0.064 z m 223.93201,-61.21671 c 16.82876,-5.25312 17.90428,-17.83987 2.07359,-24.24864 -4.18559,-1.69344 -24.74298,-1.84704 -283.23141,-2.10944 -277.95686,-0.2816 -278.74213,-0.2752 -286.72836,1.9328 -13.13533,3.63584 -17.72988,12.08967 -10.33694,19.0217 4.85951,4.5568 10.07326,6.07488 23.64923,6.88845 6.21887,0.3712 132.14501,0.6272 279.83718,0.5632 254.73611,-0.1088 268.84904,-0.2112 274.73831,-2.04992 z m 1.7088,-61.04685 c 15.93564,-5.55584 15.21212,-18.95558 -1.2896,-23.92454 -6.28319,-1.89184 -18.55196,-1.97696 -284.57765,-1.97696 -265.65225,0 -278.29702,0.0896 -284.43173,1.96864 -6.96062,2.1344 -13.30717,7.7897 -13.30717,11.85798 0,4.10688 5.83775,9.97165 12.0979,12.15424 5.6099,1.95584 15.16956,2.02368 285.641,2.02368 274.22855,0 279.95814,-0.0416 285.86981,-2.10304 z m -2.0928,-60.42611 c 8.66878,-2.39936 13.96157,-7.18169 13.96157,-12.61536 0,-3.8464 -6.86526,-9.96998 -13.24733,-11.81632 -3.66271,-1.0592 -64.35091,-1.34976 -284.11397,-1.36256 -308.66784,-0.0136 -286.64548,-0.5248 -294.42435,6.77024 -2.02559,1.89696 -3.68127,4.9536 -3.68607,6.79149 -0.008,4.4192 6.95999,10.20787 15.10589,12.5479 6.15423,1.76768 23.55131,1.88416 282.50213,1.88544 274.08487,0.003 275.99815,-0.0136 283.90181,-2.20096 z m 2.1504,-60.77849 c 13.78333,-4.76672 15.4982,-15.56308 3.47039,-21.86413 l -6.68383,-3.50208 -51.37845,-0.0136 c -482.86107,-0.0768 -510.42582,0.0136 -515.99285,1.65504 -7.0531,2.08512 -11.29597,5.81632 -12.47677,10.97158 -1.168,5.08672 4.91007,10.74778 14.50269,13.51469 6.17855,1.78176 22.64699,1.8752 284.51045,1.616 272.09223,-0.2688 278.08102,-0.32 284.04645,-2.38272 z m -89.8747,291.92985 -0.192,-46.86707 h 83.10063 83.10028 l -81.53708,46.86707 c -44.84503,25.77703 -82.16015,46.86725 -82.92207,46.86725 -0.7648,0 -1.4624,-21.09022 -1.5648,-46.86725 z M 626.12915,578.2231 c -12.20158,-8.512 -48.04278,-32.98364 -94.53708,-64.5471 -14.25053,-9.67462 -25.91067,-17.83603 -25.91067,-18.13642 0,-0.3008 16.07069,-0.54656 35.71321,-0.54656 h 35.71288 l 30.52442,21.00944 c 16.78844,11.5552 31.19321,21.00944 32.00953,21.00944 1.3536,0 19.69436,-12.3112 50.26646,-33.74483 l 11.80157,-8.27405 H 737.647 c 20.63579,0 35.66968,0.41472 35.30872,0.9744 -0.336,0.53568 -18.40892,13.02052 -40.14071,27.74324 -21.73212,14.72284 -51.35638,34.88966 -65.83283,44.81529 -14.47581,9.9256 -26.89658,18.04659 -27.60186,18.04659 -0.7072,0 -6.66814,-3.7575 -13.25117,-8.34992 z"
       id="path1" /></g></svg>
